<?xml version="1.0" encoding="us-ascii" standalone="no"?><svg xmlns="http://www.w3.org/2000/svg" xmlns:xlink="http://www.w3.org/1999/xlink" contentStyleType="text/css" height="247.2px" preserveAspectRatio="none" style="width:1189px;height:247px;background:#FFFFFF;" version="1.1" viewBox="0 0 1189 247" width="1189.8px" zoomAndPan="magnify"><defs/><g><!--class AbstractName--><g id="elem_AbstractName"><rect codeLine="3" fill="#F1F1F1" height="51.1453" id="AbstractName" rx="1.5" ry="1.5" style="stroke:#181818;stroke-width:0.3;" width="99.6" x="366.6" y="26.7"/><ellipse cx="387.75" cy="36.3" fill="#A9DCDF" rx="6.6" ry="6.6" style="stroke:#181818;stroke-width:0.6;"/><path d="M389.0625,37.3594 L386.5781,37.3594 L386.325,37.9781 L386.5781,37.9781 Q386.9437,37.9781 387.1031,38.1188 Q387.2625,38.2594 387.2625,38.4938 Q387.2625,38.7188 387.1031,38.8594 Q386.9437,39 386.5781,39 L385.2,39 Q384.8344,39 384.6844,38.8594 Q384.525,38.7188 384.525,38.4844 Q384.525,38.2594 384.6937,38.1188 Q384.8531,37.9688 385.2281,37.9781 L386.8313,33.9844 L386.1656,33.9844 Q385.8,33.9844 385.6406,33.8438 Q385.4813,33.7031 385.4813,33.4688 Q385.4813,33.2438 385.6406,33.1031 Q385.8,32.9625 386.1656,32.9625 L388.3688,32.9625 L390.4031,37.9781 Q390.7594,37.9781 390.8719,38.0625 Q391.1063,38.2219 391.1063,38.4938 Q391.1063,38.7188 390.9469,38.8594 Q390.7969,39 390.4313,39 L389.0531,39 Q388.6875,39 388.5281,38.8594 Q388.3688,38.7188 388.3688,38.4844 Q388.3688,38.2594 388.5281,38.1188 Q388.6875,37.9781 389.0531,37.9781 L389.3063,37.9781 L389.0625,37.3594 Z M388.6312,36.3375 L387.8156,34.3125 L386.9906,36.3375 L388.6312,36.3375 Z " fill="#000000"/><text fill="#000000" font-family="sans-serif" font-size="8.4" font-style="italic" lengthAdjust="spacing" textLength="53.4" x="398.85" y="39.7781">AbstractName</text><line style="stroke:#181818;stroke-width:0.3;" x1="367.2" x2="465.6" y1="45.9" y2="45.9"/><polygon fill="none" points="373.2,51.7863,375.6,54.1863,373.2,56.5863,370.8,54.1863" style="stroke:#B38D22;stroke-width:0.6;"/><text fill="#000000" font-family="sans-serif" font-size="8.4" lengthAdjust="spacing" textLength="49.2" x="378.6" y="57.3645">name : string</text><line style="stroke:#181818;stroke-width:0.3;" x1="367.2" x2="465.6" y1="61.8727" y2="61.8727"/><ellipse cx="373.2" cy="70.759" fill="#84BE84" rx="1.8" ry="1.8" style="stroke:#038048;stroke-width:0.6;"/><text fill="#000000" font-family="sans-serif" font-size="8.4" font-style="italic" lengthAdjust="spacing" textLength="84" x="378.6" y="73.3371">GetFullName() : string</text></g><!--class RussianName--><g id="elem_RussianName"><rect codeLine="9" fill="#F1F1F1" height="84.6633" id="RussianName" rx="1.5" ry="1.5" style="stroke:#181818;stroke-width:0.3;" width="252" x="4.2" y="147.3"/><ellipse cx="101.55" cy="156.9" fill="#ADD1B2" rx="6.6" ry="6.6" style="stroke:#181818;stroke-width:0.6;"/><path d="M103.2094,154.425 Q103.3031,154.2938 103.4156,154.2281 Q103.5281,154.1625 103.6594,154.1625 Q103.8844,154.1625 104.025,154.3219 Q104.1656,154.4719 104.1656,154.8375 L104.1656,155.7094 Q104.1656,156.075 104.025,156.2344 Q103.8844,156.3937 103.6594,156.3937 Q103.4531,156.3937 103.3313,156.2719 Q103.2094,156.1594 103.1438,155.85 Q103.1156,155.6344 103.0031,155.5219 Q102.8062,155.2969 102.4406,155.1656 Q102.075,155.0344 101.7,155.0344 Q101.2406,155.0344 100.8563,155.2313 Q100.4813,155.4281 100.1812,155.8781 Q99.8906,156.3281 99.8906,156.9469 L99.8906,157.6031 Q99.8906,158.3438 100.425,158.8406 Q100.9594,159.3281 101.9156,159.3281 Q102.4781,159.3281 102.8719,159.1781 Q103.1063,159.0844 103.3594,158.8219 Q103.5188,158.6625 103.6031,158.6156 Q103.6969,158.5688 103.8188,158.5688 Q104.0156,158.5688 104.1656,158.7281 Q104.325,158.8781 104.325,159.0844 Q104.325,159.2906 104.1187,159.5344 Q103.8188,159.8813 103.3406,160.0781 Q102.6938,160.35 101.9156,160.35 Q101.0063,160.35 100.2844,159.975 Q99.6938,159.675 99.2813,159.0375 Q98.8687,158.3906 98.8687,157.6219 L98.8687,156.9281 Q98.8687,156.1313 99.2344,155.4469 Q99.6094,154.7531 100.2656,154.3875 Q100.9219,154.0125 101.6625,154.0125 Q102.1031,154.0125 102.4875,154.1156 Q102.8813,154.2094 103.2094,154.425 Z " fill="#000000"/><text fill="#000000" font-family="sans-serif" font-size="8.4" lengthAdjust="spacing" textLength="52.2" x="113.85" y="160.3781">RussianName</text><line style="stroke:#181818;stroke-width:0.3;" x1="4.8" x2="255.6" y1="166.5" y2="166.5"/><rect fill="none" height="3.6" style="stroke:#C82930;stroke-width:0.6;" width="3.6" x="9" y="173.5863"/><text fill="#000000" font-family="sans-serif" font-size="8.4" lengthAdjust="spacing" textLength="49.8" x="16.2" y="177.9645">family : string</text><rect fill="none" height="3.6" style="stroke:#C82930;stroke-width:0.6;" width="3.6" x="9" y="184.759"/><text fill="#000000" font-family="sans-serif" font-size="8.4" lengthAdjust="spacing" textLength="69.6" x="16.2" y="189.1371">patronymic : string</text><line style="stroke:#181818;stroke-width:0.3;" x1="4.8" x2="255.6" y1="193.6453" y2="193.6453"/><ellipse cx="10.8" cy="202.5316" fill="#84BE84" rx="1.8" ry="1.8" style="stroke:#038048;stroke-width:0.6;"/><text fill="#000000" font-family="sans-serif" font-size="8.4" lengthAdjust="spacing" textLength="236.4" x="16.2" y="205.1098">RussianName(family : string, name : string, patronymic : string)</text><text fill="#000000" font-family="sans-serif" font-size="8.4" lengthAdjust="spacing" textLength="2.4" x="16.2" y="216.2824">&#160;</text><ellipse cx="10.8" cy="224.877" fill="#84BE84" rx="1.8" ry="1.8" style="stroke:#038048;stroke-width:0.6;"/><text fill="#000000" font-family="sans-serif" font-size="8.4" lengthAdjust="spacing" textLength="83.4" x="16.2" y="227.4551">GetFullName() : string</text></g><!--class EuropeName--><g id="elem_EuropeName"><rect codeLine="19" fill="#F1F1F1" height="84.6633" id="EuropeName" rx="1.5" ry="1.5" style="stroke:#181818;stroke-width:0.3;" width="278.4" x="277.2" y="147.3"/><ellipse cx="389.25" cy="156.9" fill="#ADD1B2" rx="6.6" ry="6.6" style="stroke:#181818;stroke-width:0.6;"/><path d="M390.9094,154.425 Q391.0031,154.2938 391.1156,154.2281 Q391.2281,154.1625 391.3594,154.1625 Q391.5844,154.1625 391.725,154.3219 Q391.8656,154.4719 391.8656,154.8375 L391.8656,155.7094 Q391.8656,156.075 391.725,156.2344 Q391.5844,156.3937 391.3594,156.3937 Q391.1531,156.3937 391.0313,156.2719 Q390.9094,156.1594 390.8438,155.85 Q390.8156,155.6344 390.7031,155.5219 Q390.5062,155.2969 390.1406,155.1656 Q389.775,155.0344 389.4,155.0344 Q388.9406,155.0344 388.5563,155.2313 Q388.1813,155.4281 387.8812,155.8781 Q387.5906,156.3281 387.5906,156.9469 L387.5906,157.6031 Q387.5906,158.3438 388.125,158.8406 Q388.6594,159.3281 389.6156,159.3281 Q390.1781,159.3281 390.5719,159.1781 Q390.8063,159.0844 391.0594,158.8219 Q391.2188,158.6625 391.3031,158.6156 Q391.3969,158.5688 391.5188,158.5688 Q391.7156,158.5688 391.8656,158.7281 Q392.025,158.8781 392.025,159.0844 Q392.025,159.2906 391.8187,159.5344 Q391.5188,159.8813 391.0406,160.0781 Q390.3938,160.35 389.6156,160.35 Q388.7063,160.35 387.9844,159.975 Q387.3938,159.675 386.9813,159.0375 Q386.5687,158.3906 386.5687,157.6219 L386.5687,156.9281 Q386.5687,156.1313 386.9344,155.4469 Q387.3094,154.7531 387.9656,154.3875 Q388.6219,154.0125 389.3625,154.0125 Q389.8031,154.0125 390.1875,154.1156 Q390.5813,154.2094 390.9094,154.425 Z " fill="#000000"/><text fill="#000000" font-family="sans-serif" font-size="8.4" lengthAdjust="spacing" textLength="49.2" x="401.55" y="160.3781">EuropeName</text><line style="stroke:#181818;stroke-width:0.3;" x1="277.8" x2="555" y1="166.5" y2="166.5"/><rect fill="none" height="3.6" style="stroke:#C82930;stroke-width:0.6;" width="3.6" x="282" y="173.5863"/><text fill="#000000" font-family="sans-serif" font-size="8.4" lengthAdjust="spacing" textLength="81.6" x="289.2" y="177.9645">second_name : string</text><rect fill="none" height="3.6" style="stroke:#C82930;stroke-width:0.6;" width="3.6" x="282" y="184.759"/><text fill="#000000" font-family="sans-serif" font-size="8.4" lengthAdjust="spacing" textLength="67.2" x="289.2" y="189.1371">last_name : string</text><line style="stroke:#181818;stroke-width:0.3;" x1="277.8" x2="555" y1="193.6453" y2="193.6453"/><ellipse cx="283.8" cy="202.5316" fill="#84BE84" rx="1.8" ry="1.8" style="stroke:#038048;stroke-width:0.6;"/><text fill="#000000" font-family="sans-serif" font-size="8.4" lengthAdjust="spacing" textLength="262.8" x="289.2" y="205.1098">EuropeName(name : string, second_name : string, last_name : string)</text><text fill="#000000" font-family="sans-serif" font-size="8.4" lengthAdjust="spacing" textLength="2.4" x="289.2" y="216.2824">&#160;</text><ellipse cx="283.8" cy="224.877" fill="#84BE84" rx="1.8" ry="1.8" style="stroke:#038048;stroke-width:0.6;"/><text fill="#000000" font-family="sans-serif" font-size="8.4" lengthAdjust="spacing" textLength="83.4" x="289.2" y="227.4551">GetFullName() : string</text></g><!--class AbstractAddress--><g id="elem_AbstractAddress"><rect codeLine="28" fill="#F1F1F1" height="39.9727" id="AbstractAddress" rx="1.5" ry="1.5" style="stroke:#181818;stroke-width:0.3;" width="82.8" x="919.8" y="32.1"/><ellipse cx="929.34" cy="41.7" fill="#A9DCDF" rx="6.6" ry="6.6" style="stroke:#181818;stroke-width:0.6;"/><path d="M930.6525,42.7594 L928.1681,42.7594 L927.915,43.3781 L928.1681,43.3781 Q928.5338,43.3781 928.6931,43.5188 Q928.8525,43.6594 928.8525,43.8938 Q928.8525,44.1188 928.6931,44.2594 Q928.5338,44.4 928.1681,44.4 L926.79,44.4 Q926.4244,44.4 926.2744,44.2594 Q926.115,44.1188 926.115,43.8844 Q926.115,43.6594 926.2838,43.5188 Q926.4431,43.3688 926.8181,43.3781 L928.4213,39.3844 L927.7556,39.3844 Q927.39,39.3844 927.2306,39.2438 Q927.0713,39.1031 927.0713,38.8688 Q927.0713,38.6438 927.2306,38.5031 Q927.39,38.3625 927.7556,38.3625 L929.9588,38.3625 L931.9931,43.3781 Q932.3494,43.3781 932.4619,43.4625 Q932.6963,43.6219 932.6963,43.8938 Q932.6963,44.1188 932.5369,44.2594 Q932.3869,44.4 932.0213,44.4 L930.6431,44.4 Q930.2775,44.4 930.1181,44.2594 Q929.9588,44.1188 929.9588,43.8844 Q929.9588,43.6594 930.1181,43.5188 Q930.2775,43.3781 930.6431,43.3781 L930.8963,43.3781 L930.6525,42.7594 Z M930.2213,41.7375 L929.4056,39.7125 L928.5806,41.7375 L930.2213,41.7375 Z " fill="#000000"/><text fill="#000000" font-family="sans-serif" font-size="8.4" font-style="italic" lengthAdjust="spacing" textLength="62.4" x="937.86" y="45.1781">AbstractAddress</text><line style="stroke:#181818;stroke-width:0.3;" x1="920.4" x2="1002" y1="51.3" y2="51.3"/><line style="stroke:#181818;stroke-width:0.3;" x1="920.4" x2="1002" y1="56.1" y2="56.1"/><ellipse cx="926.4" cy="64.9863" fill="#84BE84" rx="1.8" ry="1.8" style="stroke:#038048;stroke-width:0.6;"/><text fill="#000000" font-family="sans-serif" font-size="8.4" font-style="italic" lengthAdjust="spacing" textLength="67.2" x="931.8" y="67.5645">to_string() : string</text></g><!--class RussianAddress--><g id="elem_RussianAddress"><rect codeLine="33" fill="#F1F1F1" height="107.0086" id="RussianAddress" rx="1.5" ry="1.5" style="stroke:#181818;stroke-width:0.3;" width="292.8" x="892.8" y="136.2"/><ellipse cx="1005.75" cy="145.8" fill="#ADD1B2" rx="6.6" ry="6.6" style="stroke:#181818;stroke-width:0.6;"/><path d="M1007.4094,143.325 Q1007.5031,143.1938 1007.6156,143.1281 Q1007.7281,143.0625 1007.8594,143.0625 Q1008.0844,143.0625 1008.225,143.2219 Q1008.3656,143.3719 1008.3656,143.7375 L1008.3656,144.6094 Q1008.3656,144.975 1008.225,145.1344 Q1008.0844,145.2938 1007.8594,145.2938 Q1007.6531,145.2938 1007.5313,145.1719 Q1007.4094,145.0594 1007.3438,144.75 Q1007.3156,144.5344 1007.2031,144.4219 Q1007.0062,144.1969 1006.6406,144.0656 Q1006.275,143.9344 1005.9,143.9344 Q1005.4406,143.9344 1005.0563,144.1313 Q1004.6813,144.3281 1004.3812,144.7781 Q1004.0906,145.2281 1004.0906,145.8469 L1004.0906,146.5031 Q1004.0906,147.2438 1004.625,147.7406 Q1005.1594,148.2281 1006.1156,148.2281 Q1006.6781,148.2281 1007.0719,148.0781 Q1007.3063,147.9844 1007.5594,147.7219 Q1007.7188,147.5625 1007.8031,147.5156 Q1007.8969,147.4688 1008.0188,147.4688 Q1008.2156,147.4688 1008.3656,147.6281 Q1008.525,147.7781 1008.525,147.9844 Q1008.525,148.1906 1008.3187,148.4344 Q1008.0188,148.7813 1007.5406,148.9781 Q1006.8938,149.25 1006.1156,149.25 Q1005.2063,149.25 1004.4844,148.875 Q1003.8938,148.575 1003.4812,147.9375 Q1003.0687,147.2906 1003.0687,146.5219 L1003.0687,145.8281 Q1003.0687,145.0313 1003.4344,144.3469 Q1003.8094,143.6531 1004.4656,143.2875 Q1005.1219,142.9125 1005.8625,142.9125 Q1006.3031,142.9125 1006.6875,143.0156 Q1007.0813,143.1094 1007.4094,143.325 Z " fill="#000000"/><text fill="#000000" font-family="sans-serif" font-size="8.4" lengthAdjust="spacing" textLength="61.8" x="1018.05" y="149.2781">RussianAddress</text><line style="stroke:#181818;stroke-width:0.3;" x1="893.4" x2="1185" y1="155.4" y2="155.4"/><rect fill="none" height="3.6" style="stroke:#C82930;stroke-width:0.6;" width="3.6" x="897.6" y="162.4863"/><text fill="#000000" font-family="sans-serif" font-size="8.4" lengthAdjust="spacing" textLength="36" x="904.8" y="166.8645">index : int</text><rect fill="none" height="3.6" style="stroke:#C82930;stroke-width:0.6;" width="3.6" x="897.6" y="173.659"/><text fill="#000000" font-family="sans-serif" font-size="8.4" lengthAdjust="spacing" textLength="52.2" x="904.8" y="178.0371">region : string</text><rect fill="none" height="3.6" style="stroke:#C82930;stroke-width:0.6;" width="3.6" x="897.6" y="184.8316"/><text fill="#000000" font-family="sans-serif" font-size="8.4" lengthAdjust="spacing" textLength="52.8" x="904.8" y="189.2098">district : string</text><rect fill="none" height="3.6" style="stroke:#C82930;stroke-width:0.6;" width="3.6" x="897.6" y="196.0043"/><text fill="#000000" font-family="sans-serif" font-size="8.4" lengthAdjust="spacing" textLength="54" x="904.8" y="200.3824">locality : string</text><line style="stroke:#181818;stroke-width:0.3;" x1="893.4" x2="1185" y1="204.8906" y2="204.8906"/><ellipse cx="899.4" cy="213.777" fill="#84BE84" rx="1.8" ry="1.8" style="stroke:#038048;stroke-width:0.6;"/><text fill="#000000" font-family="sans-serif" font-size="8.4" lengthAdjust="spacing" textLength="277.2" x="904.8" y="216.3551">RussianAddress(index : int, region : string, district : string, locality : string)</text><text fill="#000000" font-family="sans-serif" font-size="8.4" lengthAdjust="spacing" textLength="2.4" x="904.8" y="227.5277">&#160;</text><ellipse cx="899.4" cy="236.1223" fill="#84BE84" rx="1.8" ry="1.8" style="stroke:#038048;stroke-width:0.6;"/><text fill="#000000" font-family="sans-serif" font-size="8.4" lengthAdjust="spacing" textLength="67.2" x="904.8" y="238.7004">to_string() : string</text></g><!--class Phone--><g id="elem_Phone"><rect codeLine="44" fill="#F1F1F1" height="95.8359" id="Phone" rx="1.5" ry="1.5" style="stroke:#181818;stroke-width:0.3;" width="193.8" x="627.3" y="4.2"/><ellipse cx="709.35" cy="13.8" fill="#ADD1B2" rx="6.6" ry="6.6" style="stroke:#181818;stroke-width:0.6;"/><path d="M711.0094,11.325 Q711.1031,11.1938 711.2156,11.1281 Q711.3281,11.0625 711.4594,11.0625 Q711.6844,11.0625 711.825,11.2219 Q711.9656,11.3719 711.9656,11.7375 L711.9656,12.6094 Q711.9656,12.975 711.825,13.1344 Q711.6844,13.2938 711.4594,13.2938 Q711.2531,13.2938 711.1313,13.1719 Q711.0094,13.0594 710.9438,12.75 Q710.9156,12.5344 710.8031,12.4219 Q710.6062,12.1969 710.2406,12.0656 Q709.875,11.9344 709.5,11.9344 Q709.0406,11.9344 708.6563,12.1313 Q708.2813,12.3281 707.9812,12.7781 Q707.6906,13.2281 707.6906,13.8469 L707.6906,14.5031 Q707.6906,15.2437 708.225,15.7406 Q708.7594,16.2281 709.7156,16.2281 Q710.2781,16.2281 710.6719,16.0781 Q710.9063,15.9844 711.1594,15.7219 Q711.3188,15.5625 711.4031,15.5156 Q711.4969,15.4688 711.6188,15.4688 Q711.8156,15.4688 711.9656,15.6281 Q712.125,15.7781 712.125,15.9844 Q712.125,16.1906 711.9187,16.4344 Q711.6188,16.7813 711.1406,16.9781 Q710.4938,17.25 709.7156,17.25 Q708.8063,17.25 708.0844,16.875 Q707.4938,16.575 707.0813,15.9375 Q706.6687,15.2906 706.6687,14.5219 L706.6687,13.8281 Q706.6687,13.0313 707.0344,12.3469 Q707.4094,11.6531 708.0656,11.2875 Q708.7219,10.9125 709.4625,10.9125 Q709.9031,10.9125 710.2875,11.0156 Q710.6813,11.1094 711.0094,11.325 Z " fill="#000000"/><text fill="#000000" font-family="sans-serif" font-size="8.4" lengthAdjust="spacing" textLength="24.6" x="721.65" y="17.2781">Phone</text><line style="stroke:#181818;stroke-width:0.3;" x1="627.9" x2="820.5" y1="23.4" y2="23.4"/><rect fill="none" height="3.6" style="stroke:#C82930;stroke-width:0.6;" width="3.6" x="632.1" y="30.4863"/><text fill="#000000" font-family="sans-serif" font-size="8.4" lengthAdjust="spacing" textLength="44.4" x="639.3" y="34.8645">country : int</text><rect fill="none" height="3.6" style="stroke:#C82930;stroke-width:0.6;" width="3.6" x="632.1" y="41.659"/><text fill="#000000" font-family="sans-serif" font-size="8.4" lengthAdjust="spacing" textLength="48.6" x="639.3" y="46.0371">operator : int</text><rect fill="none" height="3.6" style="stroke:#C82930;stroke-width:0.6;" width="3.6" x="632.1" y="52.8316"/><text fill="#000000" font-family="sans-serif" font-size="8.4" lengthAdjust="spacing" textLength="45" x="639.3" y="57.2098">number : int</text><line style="stroke:#181818;stroke-width:0.3;" x1="627.9" x2="820.5" y1="61.718" y2="61.718"/><ellipse cx="633.9" cy="70.6043" fill="#84BE84" rx="1.8" ry="1.8" style="stroke:#038048;stroke-width:0.6;"/><text fill="#000000" font-family="sans-serif" font-size="8.4" lengthAdjust="spacing" textLength="178.2" x="639.3" y="73.1824">Phone(country : int, operator : int, number : int)</text><text fill="#000000" font-family="sans-serif" font-size="8.4" lengthAdjust="spacing" textLength="2.4" x="639.3" y="84.3551">&#160;</text><ellipse cx="633.9" cy="92.9496" fill="#84BE84" rx="1.8" ry="1.8" style="stroke:#038048;stroke-width:0.6;"/><text fill="#000000" font-family="sans-serif" font-size="8.4" lengthAdjust="spacing" textLength="67.2" x="639.3" y="95.5277">to_string() : string</text></g><!--class Person--><g id="elem_Person"><rect codeLine="57" fill="#F1F1F1" height="73.4906" id="Person" rx="1.5" ry="1.5" style="stroke:#181818;stroke-width:0.3;" width="295.2" x="576.6" y="153"/><ellipse cx="708.15" cy="162.6" fill="#ADD1B2" rx="6.6" ry="6.6" style="stroke:#181818;stroke-width:0.6;"/><path d="M709.8094,160.125 Q709.9031,159.9938 710.0156,159.9281 Q710.1281,159.8625 710.2594,159.8625 Q710.4844,159.8625 710.625,160.0219 Q710.7656,160.1719 710.7656,160.5375 L710.7656,161.4094 Q710.7656,161.775 710.625,161.9344 Q710.4844,162.0938 710.2594,162.0938 Q710.0531,162.0938 709.9313,161.9719 Q709.8094,161.8594 709.7438,161.55 Q709.7156,161.3344 709.6031,161.2219 Q709.4063,160.9969 709.0406,160.8656 Q708.675,160.7344 708.3,160.7344 Q707.8406,160.7344 707.4563,160.9313 Q707.0813,161.1281 706.7813,161.5781 Q706.4906,162.0281 706.4906,162.6469 L706.4906,163.3031 Q706.4906,164.0438 707.025,164.5406 Q707.5594,165.0281 708.5156,165.0281 Q709.0781,165.0281 709.4719,164.8781 Q709.7063,164.7844 709.9594,164.5219 Q710.1188,164.3625 710.2031,164.3156 Q710.2969,164.2687 710.4187,164.2687 Q710.6156,164.2687 710.7656,164.4281 Q710.925,164.5781 710.925,164.7844 Q710.925,164.9906 710.7188,165.2344 Q710.4187,165.5812 709.9406,165.7781 Q709.2937,166.05 708.5156,166.05 Q707.6062,166.05 706.8844,165.675 Q706.2937,165.375 705.8813,164.7375 Q705.4688,164.0906 705.4688,163.3219 L705.4688,162.6281 Q705.4688,161.8312 705.8344,161.1469 Q706.2094,160.4531 706.8656,160.0875 Q707.5219,159.7125 708.2625,159.7125 Q708.7031,159.7125 709.0875,159.8156 Q709.4812,159.9094 709.8094,160.125 Z " fill="#000000"/><text fill="#000000" font-family="sans-serif" font-size="8.4" lengthAdjust="spacing" textLength="27" x="720.45" y="166.0781">Person</text><line style="stroke:#181818;stroke-width:0.3;" x1="577.2" x2="871.2" y1="172.2" y2="172.2"/><rect fill="none" height="3.6" style="stroke:#C82930;stroke-width:0.6;" width="3.6" x="581.4" y="179.2863"/><text fill="#000000" font-family="sans-serif" font-size="8.4" lengthAdjust="spacing" textLength="81" x="588.6" y="183.6645">name : AbstractName</text><rect fill="none" height="3.6" style="stroke:#C82930;stroke-width:0.6;" width="3.6" x="581.4" y="190.459"/><text fill="#000000" font-family="sans-serif" font-size="8.4" lengthAdjust="spacing" textLength="100.2" x="588.6" y="194.8371">address : AbstractAddress</text><rect fill="none" height="3.6" style="stroke:#C82930;stroke-width:0.6;" width="3.6" x="581.4" y="201.6316"/><text fill="#000000" font-family="sans-serif" font-size="8.4" lengthAdjust="spacing" textLength="55.8" x="588.6" y="206.0098">phone : Phone</text><line style="stroke:#181818;stroke-width:0.3;" x1="577.2" x2="871.2" y1="210.518" y2="210.518"/><ellipse cx="583.2" cy="219.4043" fill="#84BE84" rx="1.8" ry="1.8" style="stroke:#038048;stroke-width:0.6;"/><text fill="#000000" font-family="sans-serif" font-size="8.4" lengthAdjust="spacing" textLength="279.6" x="588.6" y="221.9824">Person(name : AbstractName, address : AbstractAddress, phone : Phone)</text></g><!--reverse link AbstractName to RussianName--><g id="link_AbstractName_RussianName"><path codeLine="8" d="M355.62,81.726 C315.576,100.782 262.5,126.042 217.908,147.258 " fill="none" id="AbstractName-backto-RussianName" style="stroke:#181818;stroke-width:0.6;"/><polygon fill="none" points="353.91,77.886,366.546,76.524,357.516,85.476,353.91,77.886" style="stroke:#181818;stroke-width:0.6;"/></g><!--reverse link AbstractName to EuropeName--><g id="link_AbstractName_EuropeName"><path codeLine="18" d="M416.4,89.934 C416.4,107.604 416.4,128.808 416.4,147.06 " fill="none" id="AbstractName-backto-EuropeName" style="stroke:#181818;stroke-width:0.6;"/><polygon fill="none" points="412.2,89.784,416.4,77.784,420.6,89.784,412.2,89.784" style="stroke:#181818;stroke-width:0.6;"/></g><!--reverse link AbstractAddress to RussianAddress--><g id="link_AbstractAddress_RussianAddress"><path codeLine="32" d="M978.438,82.902 C987.366,98.49 998.538,117.996 1008.852,136.008 " fill="none" id="AbstractAddress-backto-RussianAddress" style="stroke:#181818;stroke-width:0.6;"/><polygon fill="none" points="974.694,84.816,972.378,72.312,981.984,80.64,974.694,84.816" style="stroke:#181818;stroke-width:0.6;"/></g><!--link AbstractName to Person--><g id="link_AbstractName_Person"><path codeLine="54" d="M473.526,78.078 C518.952,98.178 583.32,126.66 635.448,149.73 " fill="none" id="AbstractName-Person" style="stroke:#181818;stroke-width:0.6;"/><polygon fill="#181818" points="466.368,74.91,470.3357,79.2892,469.1116,76.1235,472.2773,74.8994,466.368,74.91" style="stroke:#181818;stroke-width:0.6;"/><line style="stroke:#181818;stroke-width:0.6;" x1="469.1116" x2="473.502" y1="76.1235" y2="78.066"/><polygon fill="#181818" points="642.72,152.946,640.4022,149.2926,636.1383,150.0269,638.4561,153.6804,642.72,152.946" style="stroke:#181818;stroke-width:0.6;"/></g><!--link AbstractAddress to Person--><g id="link_AbstractAddress_Person"><path codeLine="55" d="M920.382,76.26 C885.63,96.228 834.954,125.352 793.812,148.998 " fill="none" id="AbstractAddress-Person" style="stroke:#181818;stroke-width:0.6;"/><polygon fill="#181818" points="927.246,72.312,921.368,72.9194,924.6443,73.8057,923.758,77.0821,927.246,72.312" style="stroke:#181818;stroke-width:0.6;"/><line style="stroke:#181818;stroke-width:0.6;" x1="924.6443" x2="920.481" y1="73.8057" y2="76.203"/><polygon fill="#181818" points="787.032,152.892,791.349,153.1809,793.276,149.307,788.959,149.0182,787.032,152.892" style="stroke:#181818;stroke-width:0.6;"/></g><!--link Phone to Person--><g id="link_Phone_Person"><path codeLine="56" d="M724.2,108.048 C724.2,120.324 724.2,133.182 724.2,144.942 " fill="none" id="Phone-Person" style="stroke:#181818;stroke-width:0.6;"/><polygon fill="#181818" points="724.2,100.242,721.8,105.642,724.2,103.242,726.6,105.642,724.2,100.242" style="stroke:#181818;stroke-width:0.6;"/><line style="stroke:#181818;stroke-width:0.6;" x1="724.2" x2="724.2" y1="103.242" y2="108.042"/><polygon fill="#181818" points="724.2,152.886,726.6,149.286,724.2,145.686,721.8,149.286,724.2,152.886" style="stroke:#181818;stroke-width:0.6;"/></g><!--SRC=[bPDDJiCm48NtFeKb5gHWqtt4fWjWXoekK4qTqrhoJsGx4b7ftN6SjB7J1CGky-ht-SsCUt_qldRbUbrBqBvHyeaPjMOIdAELW8C5XH3idRV0F8uwtWpbEoYEJ-WEw-wZn44L-e0UyUbYEECtxbyRARkZnMeySqOeepn_Kue_6kS4w4v0_Ks94YwY-1EKaEs8eRW6RurkbM2Z6X8anc9Y8dbSCeTOTOp_H7zfhAbvadmKOd37cT7LBXyKnU6eduZXuj5RJABEOSWCvO_y2_lSL9NbeJxbA_HcrriNfd2nfJiSj7oD8vzYeIl-5N12-r1PVX16fvEfHFSP8gRJCWoayEtSfWTsaN3954jkgUGM6cUtr7FVp_PeTBzNPXhjRNjj9EpDWZVsAkX6xVcb3E1eBJ8RcRX8PlerJluGANt0MswTqRUxINxhqwVAq5KiObl3OqhnGOK1LavVJFS_ZD2oxoys6cd538aiWqZEMOKUVm00]--></g></svg>